<svg version="1.1" id="Layer_1" xmlns="http://www.w3.org/2000/svg" xmlns:xlink="http://www.w3.org/1999/xlink" x="0px" y="0px"
	 width="100%" viewBox="0 0 408 89" enable-background="new 0 0 408 89" xml:space="preserve">
<path fill="#000000" opacity="1.000000" stroke="none" 
	d="
M1.317370,38.214554 
	C1.000000,26.505138 1.068099,15.009507 0.938269,3.516112 
	C0.914430,1.405734 1.308817,0.532643 3.485387,0.985406 
	C3.964435,1.085056 4.481905,1.000000 4.981681,1.000000 
	C138.255432,1.000000 271.529236,1.020951 404.802856,0.892222 
	C408.548340,0.888604 409.111450,1.830311 409.090576,5.299710 
	C408.926971,32.453255 408.946198,59.608486 409.081024,86.762344 
	C409.094940,89.560066 408.487488,90.075928 405.740082,90.074188 
	C271.966614,89.989380 138.193054,89.983719 4.419625,90.097862 
	C1.215437,90.100594 0.890366,89.188881 0.931408,86.421654 
	C1.096920,75.262321 1.000000,64.099098 1.000000,52.468658 
	C4.212363,50.922276 4.041423,53.604988 4.470443,55.300632 
	C7.498217,67.267509 14.245157,76.462944 25.279791,81.996857 
	C38.458820,88.606201 52.152416,89.067932 64.983772,81.633560 
	C77.597969,74.325012 85.225578,63.404583 85.667892,47.990318 
	C86.086594,33.399357 81.296906,21.402044 69.511322,12.847431 
	C45.775558,-4.381271 14.711884,5.744715 4.989792,33.543777 
	C4.338060,35.407318 4.676806,38.135006 1.317370,38.214554 
z"/>
<path fill="#017EFA" opacity="1.000000" stroke="none" 
	d="
M1.000000,38.464653 
	C2.665199,39.196270 2.758959,37.823811 2.998987,36.758232 
	C8.100329,14.111379 27.460459,1.060018 49.452545,3.230562 
	C69.893326,5.247997 87.506599,22.682930 87.365227,46.281811 
	C87.242256,66.809288 72.558655,81.574745 59.255699,85.756294 
	C37.188923,92.692619 19.129221,84.237686 8.628183,68.693130 
	C5.753770,64.438179 3.329396,59.489311 3.012438,53.998455 
	C2.952810,52.965504 2.582180,52.057823 1.346234,51.717560 
	C1.000000,47.643101 1.000000,43.286201 1.000000,38.464653 
z"/>
<path fill="#0180FF" opacity="1.000000" stroke="none" 
	d="
M105.002090,53.742718 
	C101.787132,41.733566 107.957764,30.057020 117.455070,25.935028 
	C126.856163,21.854794 139.486862,22.772888 146.786255,32.431805 
	C152.650284,40.191364 153.906830,51.523167 147.765488,60.617165 
	C145.696548,63.680820 144.713593,66.009140 148.113388,68.696136 
	C150.337845,70.454216 149.113892,71.802834 147.303345,73.274292 
	C141.343292,78.118080 141.304199,78.258110 137.115036,72.215294 
	C136.030670,70.651108 135.595169,70.328766 133.437439,70.676147 
	C121.059540,72.668869 108.722198,67.576675 105.002090,53.742718 
z"/>
<path fill="#0180FF" opacity="1.000000" stroke="none" 
	d="
M342.999756,35.998592 
	C343.602783,40.213173 341.800781,43.023804 339.155853,45.454037 
	C345.084991,49.438606 347.016724,54.364574 345.487183,60.093445 
	C343.876312,66.126915 340.431763,69.632080 332.208557,69.947914 
	C325.572906,70.202774 318.916321,69.877373 312.275787,70.058174 
	C309.600739,70.131012 308.923981,69.237442 308.947632,66.664314 
	C309.065094,53.872883 309.072113,41.079063 308.943359,28.287844 
	C308.916687,25.638973 309.725067,24.880882 312.323486,24.945908 
	C318.964783,25.112101 325.617004,24.858309 332.257385,25.041801 
	C338.897369,25.225288 342.877502,29.288326 342.999756,35.998592 
z"/>
<path fill="#0180FF" opacity="1.000000" stroke="none" 
	d="
M221.799911,68.584282 
	C211.211029,72.892662 204.986710,71.770027 199.863358,64.350426 
	C194.346176,56.360500 196.000015,38.534264 207.750763,35.577217 
	C210.096237,34.986992 212.778107,34.349983 214.480911,35.180767 
	C219.672150,37.713551 224.814438,35.886761 229.947693,35.937717 
	C232.328751,35.961357 233.076019,36.666199 233.046021,39.052223 
	C232.929047,48.355362 232.927048,57.661758 233.047012,66.964821 
	C233.078079,69.374428 232.279404,70.405663 229.932190,69.981316 
	C227.301285,69.505692 224.396988,71.149773 221.799911,68.584282 
z"/>
<path fill="#0180FF" opacity="1.000000" stroke="none" 
	d="
M256.781433,44.668556 
	C253.077698,46.247631 251.964951,48.936440 251.992752,52.349957 
	C252.023941,56.178566 251.596191,60.061169 252.095352,63.823799 
	C252.825546,69.327827 250.464096,70.871223 245.555771,69.983467 
	C243.777802,69.661880 240.940811,71.348724 240.976059,67.435448 
	C241.063019,57.780846 241.003021,48.124950 241.008514,38.469574 
	C241.009186,37.300663 241.004684,35.666348 242.628494,36.102886 
	C245.762802,36.945503 249.700302,33.581707 252.197632,38.093277 
	C252.869934,39.307808 253.650146,37.606201 254.309845,37.163876 
	C259.779327,33.496605 266.993927,34.222305 271.305420,38.756542 
	C273.253632,40.805447 273.928497,43.259453 273.965515,45.883244 
	C274.064178,52.873684 273.865631,59.870193 274.062866,66.856445 
	C274.143616,69.715797 272.899994,70.015266 270.524872,70.052620 
	C262.999054,70.170975 263.000702,70.262230 263.000092,62.915649 
	C262.999725,58.420902 263.122101,53.921654 262.958710,49.432819 
	C262.826965,45.812862 261.199463,43.561615 256.781433,44.668556 
z"/>
<path fill="#0180FF" opacity="1.000000" stroke="none" 
	d="
M397.310822,69.999725 
	C392.023895,67.406563 387.680176,71.287369 382.962067,71.069466 
	C375.626465,70.730690 371.066040,66.428627 371.009033,59.107647 
	C370.964996,53.451622 371.333160,47.769276 370.899139,42.146408 
	C370.524506,37.293407 371.718231,35.538071 376.975189,35.799633 
	C381.107086,36.005222 382.448730,36.922974 382.087219,41.080246 
	C381.699585,45.538353 382.060944,50.057365 381.981689,54.547791 
	C381.911713,58.512066 383.474396,61.817684 387.522675,61.789368 
	C391.538269,61.761288 393.104492,58.478138 393.024353,54.499512 
	C392.923828,49.510628 393.157898,44.511303 392.940338,39.529900 
	C392.814972,36.658848 393.798920,35.642464 396.589233,35.970013 
	C398.066223,36.143394 399.586884,36.091412 401.075806,35.980160 
	C403.102966,35.828693 404.067383,36.386398 404.041656,38.693581 
	C403.935913,48.175137 404.017029,57.658615 403.990448,67.141273 
	C403.975372,72.518898 399.805817,68.984314 397.310822,69.999725 
z"/>
<path fill="#0180FF" opacity="1.000000" stroke="none" 
	d="
M180.000214,43.072750 
	C180.003616,36.307430 183.273148,34.126026 189.535751,35.991653 
	C191.200424,36.487564 190.981750,37.549606 190.984268,38.641899 
	C191.006180,48.130268 190.953415,57.619076 191.032791,67.106834 
	C191.050034,69.166641 190.537537,70.445251 188.282913,69.968689 
	C185.427963,69.365257 182.083023,71.652145 179.639557,68.393524 
	C179.030472,67.581238 178.218948,68.476433 177.541718,68.933174 
	C169.655975,74.251595 156.672668,70.065163 157.907806,57.422745 
	C158.455521,51.816494 158.288208,46.092525 157.902267,40.459209 
	C157.630875,36.497967 159.109207,35.431965 162.665329,35.977596 
	C163.641190,36.127323 164.673172,36.107410 165.655518,35.980453 
	C168.233475,35.647293 169.153381,36.593628 169.057556,39.277683 
	C168.861664,44.763969 169.060944,50.263100 168.977936,55.755138 
	C168.924500,59.290939 170.620285,61.696228 173.974442,61.866314 
	C177.544922,62.047367 179.733185,59.596313 179.938309,56.042694 
	C180.177750,51.894825 179.998047,47.722755 180.000214,43.072750 
z"/>
<path fill="#0180FF" opacity="1.000000" stroke="none" 
	d="
M290.974121,69.999718 
	C285.859131,70.890694 284.588257,68.855362 284.907166,64.393402 
	C285.297302,58.934284 284.942230,53.425087 285.028961,47.939434 
	C285.060303,45.957382 284.702820,44.641335 282.341278,45.002609 
	C278.034668,45.661446 279.102142,42.532650 279.006073,40.251022 
	C278.907227,37.903515 278.530151,35.453136 282.344116,35.959713 
	C286.231934,36.476109 285.152008,33.291973 284.904327,31.584211 
	C284.180573,26.594769 287.185394,26.972303 290.523773,26.927271 
	C293.968781,26.880798 296.878876,26.743208 296.038330,31.626301 
	C295.577423,34.303864 295.825806,36.441917 299.715820,36.094620 
	C303.703033,35.738636 301.703888,39.123894 301.885620,40.811737 
	C302.056885,42.402290 303.159729,45.365005 299.613403,44.941807 
	C296.187134,44.532936 295.869843,46.237728 295.951569,48.987392 
	C296.114594,54.469574 295.745361,59.975945 296.087555,65.441544 
	C296.322723,69.197601 295.181702,70.697884 290.974121,69.999718 
z"/>
<path fill="#0180FF" opacity="1.000000" stroke="none" 
	d="
M362.999817,31.042622 
	C362.999725,42.988724 362.893890,54.441452 363.068512,65.889900 
	C363.116547,69.039780 362.389557,70.173027 359.013977,70.089096 
	C352.005676,69.914848 352.000305,70.121895 352.000214,62.948883 
	C352.000061,50.833935 352.272034,38.709900 351.867432,26.608480 
	C351.703949,21.719120 354.057953,21.891005 357.481079,21.928434 
	C360.818634,21.964928 363.932129,21.619438 363.034790,26.570999 
	C362.801819,27.856440 362.999786,29.219973 362.999817,31.042622 
z"/>
<path fill="#000101" opacity="1.000000" stroke="none" 
	d="
M59.932148,66.829437 
	C51.540764,73.322540 42.401482,73.805092 33.267258,69.487694 
	C23.678791,64.955589 18.308104,56.711128 18.173363,46.270741 
	C18.011890,33.759335 25.577290,23.557009 38.345154,20.031593 
	C52.274902,16.185364 66.135971,26.143095 69.297974,35.814075 
	C72.687866,46.182037 71.705048,55.198750 64.076141,63.601067 
	C60.104546,63.188770 58.632481,59.706814 56.279213,57.354500 
	C53.595097,54.671467 51.264668,51.621159 48.540958,48.960506 
	C46.890224,47.347988 44.875141,45.295460 42.654976,47.753277 
	C40.541283,50.093227 42.375072,52.013672 44.277321,53.562260 
	C48.001743,56.594254 51.815220,59.511784 55.658611,62.392475 
	C57.227222,63.568176 59.058220,64.519180 59.932148,66.829437 
z"/>
<path fill="#F2F3F4" opacity="1.000000" stroke="none" 
	d="
M60.378609,67.235580 
	C54.637020,63.114487 49.282528,59.066223 43.961758,54.974113 
	C42.927185,54.178440 41.893318,53.316025 41.086864,52.303078 
	C39.331635,50.098427 40.078503,47.696911 41.757362,46.143318 
	C43.562115,44.473236 46.020267,44.353237 47.934650,46.474972 
	C53.076092,52.173302 58.180916,57.904675 63.597004,63.756477 
	C64.891029,67.429443 68.962067,68.898041 70.190033,73.272736 
	C66.099709,71.934410 63.877010,68.869835 60.378609,67.235580 
z"/>
<path fill="#000000" opacity="1.000000" stroke="none" 
	d="
M117.016891,51.686760 
	C114.170013,45.965557 118.302361,39.177456 122.263588,36.316662 
	C125.475914,33.996727 131.536240,34.608597 134.726410,37.196384 
	C139.109909,40.752190 141.637589,47.663288 137.726044,54.237507 
	C134.536728,53.192551 135.277481,45.610161 129.267273,49.371235 
	C123.380562,53.055027 123.459007,53.180389 127.798897,59.862492 
	C122.192703,59.747875 119.132950,56.601055 117.016891,51.686760 
z"/>
<path fill="#000000" opacity="1.000000" stroke="none" 
	d="
M327.727264,59.999989 
	C326.122650,59.999943 324.942352,59.840736 323.820435,60.029171 
	C320.227234,60.632664 319.979370,58.674717 319.902374,55.785667 
	C319.821533,52.751762 320.671570,51.532513 323.760864,51.965279 
	C325.215515,52.169048 326.725952,52.066639 328.204742,51.985893 
	C331.086639,51.828522 333.779877,52.331059 333.905182,55.769619 
	C334.041565,59.511978 331.296997,60.211185 327.727264,59.999989 
z"/>
<path fill="#000000" opacity="1.000000" stroke="none" 
	d="
M322.152710,35.009628 
	C324.271179,35.002457 325.934113,35.007378 327.597015,35.001499 
	C330.128906,34.992546 331.587799,36.248993 331.985107,38.734467 
	C332.423126,41.474762 330.161987,42.268097 328.436218,42.686825 
	C326.233154,43.221367 323.783142,43.201260 321.516113,42.879944 
	C319.207031,42.552662 319.361603,37.567322 322.152710,35.009628 
z"/>
<path fill="#000000" opacity="1.000000" stroke="none" 
	d="
M208.947189,57.801437 
	C206.987915,51.198502 208.166031,46.629360 212.138535,45.052097 
	C215.717178,43.631210 218.784012,44.342457 220.888794,47.729782 
	C223.166016,51.394661 222.339584,58.818298 219.039444,60.221062 
	C215.616791,61.675896 211.639389,62.471745 208.947189,57.801437 
z"/>
</svg>